HIERARCHY
ROOT Hips
{
	OFFSET 0.000000 89.005402 0.000000
	CHANNELS 6 Xposition Yposition Zposition Xrotation Yrotation Zrotation
	JOINT Spine
	{
		OFFSET 0.116900 10.681000 0.373400
		CHANNELS 3 Xrotation Yrotation Zrotation
		JOINT Spine1
		{
			OFFSET 0.000000 13.840401 0.053500
			CHANNELS 3 Xrotation Yrotation Zrotation
			JOINT Spine2
			{
				OFFSET 0.000000 14.712700 -0.366200
				CHANNELS 3 Xrotation Yrotation Zrotation
				JOINT Neck
				{
					OFFSET 0.000000 35.415497 -3.314200
					CHANNELS 3 Xrotation Yrotation Zrotation
					JOINT Head
					{
						OFFSET 0.000000 16.899200 1.218300
						CHANNELS 3 Xrotation Yrotation Zrotation
						JOINT HeadTop_End
						{
							OFFSET 0.000000 22.206207 2.192500
							CHANNELS 3 Xrotation Yrotation Zrotation
							End Site
							{
								OFFSET 0.000000 22.314178 0.000000
							}
						}
					}
				}
				JOINT LeftShoulder
				{
					OFFSET 12.896400 26.716293 -4.548400
					CHANNELS 3 Xrotation Yrotation Zrotation
					JOINT LeftArm
					{
						OFFSET 19.027000 -4.857010 -1.718400
						CHANNELS 3 Xrotation Yrotation Zrotation
						JOINT LeftForeArm
						{
							OFFSET 24.179897 0.000000 0.000000
							CHANNELS 3 Xrotation Yrotation Zrotation
							JOINT LeftHand
							{
								OFFSET 27.156403 0.000000 0.000000
								CHANNELS 3 Xrotation Yrotation Zrotation
								JOINT LeftHandIndex1
								{
									OFFSET 16.441200 0.000000 0.000000
									CHANNELS 3 Xrotation Yrotation Zrotation
									JOINT LeftHandIndex2
									{
										OFFSET 4.821899 0.000000 0.000000
										CHANNELS 3 Xrotation Yrotation Zrotation
										JOINT LeftHandIndex3
										{
											OFFSET 6.386497 0.000000 0.000000
											CHANNELS 3 Xrotation Yrotation Zrotation
											JOINT LeftHandIndex4
											{
												OFFSET 5.188988 0.000000 0.000000
												CHANNELS 3 Xrotation Yrotation Zrotation
												End Site
												{
													OFFSET -0.178703 5.185913 0.000177
												}
											}
										}
									}
								}
								JOINT LeftHandThumb1
								{
									OFFSET 6.534897 -5.032593 5.900300
									CHANNELS 3 Xrotation Yrotation Zrotation
									JOINT LeftHandThumb2
									{
										OFFSET 3.818176 -2.204422 2.204423
										CHANNELS 3 Xrotation Yrotation Zrotation
										JOINT LeftHandThumb3
										{
											OFFSET 3.252098 -1.877594 1.877601
											CHANNELS 3 Xrotation Yrotation Zrotation
											JOINT LeftHandThumb4
											{
												OFFSET 5.251778 -3.032120 3.032117
												CHANNELS 3 Xrotation Yrotation Zrotation
												End Site
												{
													OFFSET 0.000023 6.780014 0.000000
												}
											}
										}
									}
								}
							}
						}
					}
				}
				JOINT RightShoulder
				{
					OFFSET -12.896300 26.716293 -4.548400
					CHANNELS 3 Xrotation Yrotation Zrotation
					JOINT RightArm
					{
						OFFSET -19.027000 -4.857010 -1.718400
						CHANNELS 3 Xrotation Yrotation Zrotation
						JOINT RightForeArm
						{
							OFFSET -24.179897 0.000000 0.000000
							CHANNELS 3 Xrotation Yrotation Zrotation
							JOINT RightHand
							{
								OFFSET -27.156403 0.000000 0.000000
								CHANNELS 3 Xrotation Yrotation Zrotation
								JOINT RightHandThumb1
								{
									OFFSET -6.591202 -4.852203 5.988100
									CHANNELS 3 Xrotation Yrotation Zrotation
									JOINT RightHandThumb2
									{
										OFFSET -3.818176 -2.204422 2.204423
										CHANNELS 3 Xrotation Yrotation Zrotation
										JOINT RightHandThumb3
										{
											OFFSET -3.252098 -1.877594 1.877601
											CHANNELS 3 Xrotation Yrotation Zrotation
											JOINT RightHandThumb4
											{
												OFFSET -5.251778 -3.032120 3.032117
												CHANNELS 3 Xrotation Yrotation Zrotation
												End Site
												{
													OFFSET -0.000023 6.780014 0.000000
												}
											}
										}
									}
								}
								JOINT RightHandIndex1
								{
									OFFSET -16.029404 0.000000 0.000000
									CHANNELS 3 Xrotation Yrotation Zrotation
									JOINT RightHandIndex2
									{
										OFFSET -5.213303 0.000000 0.000000
										CHANNELS 3 Xrotation Yrotation Zrotation
										JOINT RightHandIndex3
										{
											OFFSET -6.386528 0.000000 0.000000
											CHANNELS 3 Xrotation Yrotation Zrotation
											JOINT RightHandIndex4
											{
												OFFSET -5.189026 0.000000 0.000000
												CHANNELS 3 Xrotation Yrotation Zrotation
												End Site
												{
													OFFSET 0.236702 5.183624 0.001972
												}
											}
										}
									}
								}
							}
						}
					}
				}
			}
		}
	}
	JOINT LeftUpLeg
	{
		OFFSET 14.073000 -7.904099 -1.463000
		CHANNELS 3 Xrotation Yrotation Zrotation
		JOINT LeftLeg
		{
			OFFSET -0.109806 -34.073280 4.093200
			CHANNELS 3 Xrotation Yrotation Zrotation
			JOINT LeftFoot
			{
				OFFSET 0.109806 -29.899420 -6.319000
				CHANNELS 3 Xrotation Yrotation Zrotation
				JOINT LeftToeBase
				{
					OFFSET 1.551100 -14.988700 20.535801
					CHANNELS 3 Xrotation Yrotation Zrotation
					JOINT LeftToe_End
					{
						OFFSET 0.221200 0.570800 13.248301
						CHANNELS 3 Xrotation Yrotation Zrotation
						End Site
						{
							OFFSET 0.000000 13.262435 0.000000
						}
					}
				}
			}
		}
	}
	JOINT RightUpLeg
	{
		OFFSET -13.839300 -7.904099 -1.463000
		CHANNELS 3 Xrotation Yrotation Zrotation
		JOINT RightLeg
		{
			OFFSET 0.109694 -34.073219 4.093300
			CHANNELS 3 Xrotation Yrotation Zrotation
			JOINT RightFoot
			{
				OFFSET -0.109694 -29.899384 -6.319200
				CHANNELS 3 Xrotation Yrotation Zrotation
				JOINT RightToeBase
				{
					OFFSET -1.551100 -14.988700 20.535801
					CHANNELS 3 Xrotation Yrotation Zrotation
					JOINT RightToe_End
					{
						OFFSET -0.221200 0.570900 13.248299
						CHANNELS 3 Xrotation Yrotation Zrotation
						End Site
						{
							OFFSET 0.000000 13.262440 0.000000
						}
					}
				}
			}
		}
	}
}
MOTION
Frames: 8
Frame Time: 0.033333
4.620413 41.411934 -2.974144 1.234485 -29.686294 9.047363 3.565243 -4.939625 -4.396236 2.844911 -4.152766 -2.149812 2.768605 -4.212009 -2.111294 0.463157 2.837771 2.357655 0.012650 15.814932 4.562045 -0.000000 0.000001 -0.000000 1.530167 -0.744400 -1.917310 -3.271993 -12.105423 -51.033025 0.004358 -88.077379 0.004391 -52.890106 20.116172 41.398702 1.016532 3.605844 -31.478709 1.016530 3.605841 -31.478706 0.193868 1.625530 -13.600723 -0.000003 -0.000002 -0.000000 -1.540055 3.690186 6.142345 3.939054 7.948708 0.746809 -0.579465 1.574998 2.538716 -0.000002 0.000001 0.000000 5.560243 17.956441 2.651589 -32.494430 -15.150558 39.610282 0.000530 94.692916 -0.000574 40.622082 -28.211606 8.823198 -1.849244 -3.581793 -6.586140 4.637190 -8.634122 -0.225401 -1.273751 0.137305 -2.094871 -0.000001 0.000000 -0.000001 0.081135 -1.061259 8.743210 0.000152 -0.046009 0.377549 0.000001 0.001005 -0.008211 0.000001 0.000002 0.000001 -78.952274 -16.790243 49.829126 74.690789 6.975857 -6.366322 29.027638 0.597439 -13.702182 -0.003024 0.000007 -0.003136 0.000000 -0.000001 -0.000000 -11.570333 -1.006111 -20.865495 112.089838 6.124716 -1.062587 17.670041 1.686101 11.250643 48.119475 -3.093711 -10.680160 -0.000001 0.000001 0.000000 
4.559493 41.418388 -2.978183 1.369782 -29.662234 9.196098 3.535770 -4.863718 -4.656248 2.810492 -4.080786 -2.306023 2.744173 -4.136578 -2.266373 0.495816 2.875336 2.696922 -0.557784 16.320419 5.115395 -0.000000 0.000001 0.000000 1.480361 -0.701470 -1.238072 -3.264502 -12.231487 -51.554329 0.000113 -88.164847 0.000058 -52.644069 19.692581 41.206169 1.016533 3.605842 -31.478703 1.016532 3.605845 -31.478699 0.193860 1.625532 -13.600723 -0.000001 0.000000 0.000000 -1.540054 3.690178 6.142349 3.939055 7.948710 0.746808 -0.579463 1.574996 2.538715 0.000001 -0.000000 -0.000001 5.526703 18.040667 3.182611 -31.850921 -14.060295 37.299550 -0.000007 98.091666 -0.000013 34.080257 -26.275758 10.628199 -1.849245 -3.581790 -6.586142 4.637189 -8.634116 -0.225403 -1.273752 0.137304 -2.094871 0.000001 -0.000000 -0.000000 0.081031 -1.060575 8.737471 0.000006 0.003396 -0.000007 0.000005 -0.008215 0.067372 -0.000002 -0.000000 -0.000001 -78.990817 -16.634390 49.956171 74.566193 6.990215 -6.487440 29.094441 0.646432 -13.610437 -0.002924 -0.000005 -0.003032 -0.000000 0.000001 0.000000 -11.750137 -1.012294 -20.786583 112.172265 6.098851 -1.064843 17.516119 1.651700 11.091105 48.397204 -3.052814 -10.444687 0.000000 0.000001 -0.000000 
4.485867 41.421043 -2.989822 1.461610 -29.578049 9.302393 3.507160 -4.833317 -4.905340 2.778897 -4.047159 -2.456911 2.720406 -4.100481 -2.416176 0.470068 2.870169 3.024355 -0.854836 16.670308 5.416162 -0.000000 -0.000001 0.000001 1.394878 -0.547443 -0.756147 -3.173336 -12.400886 -51.843417 0.001159 -88.301765 0.001053 -52.645148 19.316938 41.023667 1.016532 3.605842 -31.478706 1.016531 3.605842 -31.478703 0.193866 1.625530 -13.600724 -0.000002 -0.000001 -0.000002 -1.540055 3.690175 6.142346 3.939057 7.948711 0.746808 -0.579465 1.574999 2.538714 0.000001 0.000003 -0.000001 5.516185 18.164644 3.729361 -31.699588 -13.049977 35.547197 0.000264 100.944916 -0.000230 30.461332 -23.883015 14.557826 -1.849244 -3.581788 -6.586140 4.637190 -8.634117 -0.225403 -1.273752 0.137305 -2.094871 -0.000001 -0.000000 0.000000 0.080947 -1.060053 8.733198 0.000096 -0.037239 0.305635 0.000034 -0.022903 0.187924 -0.000000 0.000001 0.000001 -78.961686 -16.554625 50.074320 74.429200 7.040325 -6.693715 29.158771 0.562674 -13.503543 -0.002852 0.000005 -0.002941 0.000000 -0.000001 -0.000000 -11.856753 -1.122901 -20.687374 112.129276 6.081340 -1.073271 17.560964 1.649500 11.045783 48.543227 -3.022130 -10.236920 -0.000000 0.000001 0.000000 
4.394405 41.423759 -3.009185 1.452789 -29.463291 9.291826 3.513718 -4.815984 -5.142254 2.778294 -4.029404 -2.594783 2.726738 -4.080769 -2.553045 0.351667 2.796467 3.369869 -0.812944 16.795078 5.468351 0.000000 -0.000002 0.000000 1.305368 -0.378418 -0.327616 -3.074699 -12.555255 -52.027272 0.009805 -88.472062 0.009761 -52.824813 18.945145 40.833910 1.016532 3.605840 -31.478713 1.016535 3.605841 -31.478706 0.193867 1.625531 -13.600723 0.000001 0.000001 0.000000 -1.540054 3.690181 6.142347 3.939055 7.948709 0.746809 -0.579464 1.574993 2.538714 -0.000000 -0.000001 -0.000000 5.517666 18.291685 4.317715 -31.107482 -11.715398 33.989651 0.000136 103.514686 -0.000144 28.369517 -21.570398 18.884457 -1.849246 -3.581790 -6.586141 4.637187 -8.634116 -0.225401 -1.273754 0.137306 -2.094870 -0.000000 0.000001 0.000001 0.080928 -1.059928 8.732067 0.000555 -0.087847 0.720836 0.000121 -0.041015 0.336396 0.000000 -0.000003 -0.000001 -78.794681 -16.599854 50.244593 74.285547 7.116145 -6.988657 29.231171 0.359455 -13.389911 -0.002681 0.000012 -0.002727 -0.000000 -0.000000 0.000000 -11.832980 -1.334976 -20.497621 111.950284 6.000773 -1.088246 17.807930 1.677953 11.085487 48.526769 -3.003772 -10.096220 -0.000000 -0.000002 -0.000001 
4.284986 41.426659 -3.032830 1.364009 -29.381992 9.166154 3.569833 -4.745869 -5.378790 2.815611 -3.973159 -2.722689 2.771316 -4.022596 -2.680189 0.139376 2.660175 3.760026 -0.686861 16.726759 5.401314 -0.000000 -0.000001 0.000001 1.226717 -0.247967 0.191056 -3.087218 -12.737183 -52.240661 -0.008841 -88.656655 -0.008739 -53.113897 18.584352 40.635326 1.016534 3.605839 -31.478706 1.016534 3.605843 -31.478709 0.193864 1.625532 -13.600723 -0.000005 0.000001 -0.000000 -1.540054 3.690181 6.142348 3.939055 7.948715 0.746808 -0.579464 1.574997 2.538714 -0.000000 0.000001 0.000000 5.509038 18.371201 4.953007 -30.011605 -10.281320 32.425179 -0.000005 105.980705 0.000005 26.326022 -18.596423 23.181495 -1.849244 -3.581790 -6.586143 4.637189 -8.634122 -0.225401 -1.273752 0.137312 -2.094870 0.000001 0.000002 0.000000 0.080989 -1.060331 8.735564 0.001158 -0.126859 1.040948 0.000266 -0.061401 0.503827 0.000000 0.000001 0.000002 -78.566184 -16.698877 50.516540 74.144511 7.198817 -7.266780 29.307659 0.057089 -13.249372 -0.002583 -0.000001 -0.002621 -0.000000 -0.000001 -0.000000 -11.695497 -1.561814 -20.184425 111.693353 5.882965 -1.105072 18.136664 1.723779 11.206271 48.447935 -2.994999 -9.984744 0.000000 0.000002 0.000000 
4.167229 41.432289 -3.055275 1.261617 -29.330960 9.000892 3.653142 -4.609797 -5.622701 2.868903 -3.865684 -2.848181 2.832434 -3.913114 -2.804963 -0.146851 2.482505 4.214670 -0.611019 16.585673 5.251464 -0.000000 -0.000002 0.000000 1.158532 -0.155920 0.806808 -3.216554 -12.999015 -52.532655 -0.015322 -88.832163 -0.015069 -53.422137 18.189784 40.433227 1.016533 3.605842 -31.478706 1.016529 3.605844 -31.478709 0.193867 1.625531 -13.600721 -0.000001 0.000000 0.000001 -1.540054 3.690180 6.142348 3.939055 7.948716 0.746807 -0.579465 1.574998 2.538714 -0.000000 0.000001 -0.000000 5.483505 18.399579 5.611606 -28.556971 -8.861183 30.777092 -0.000040 108.215864 0.000048 24.675481 -15.002316 26.867497 -1.849246 -3.581788 -6.586141 4.637189 -8.634110 -0.225401 -1.273752 0.137305 -2.094871 -0.000000 0.000003 0.000001 0.081140 -1.061288 8.743463 0.001979 -0.166132 1.363270 0.000501 -0.083606 0.686122 0.000001 -0.000004 -0.000000 -78.405210 -16.742708 50.825876 73.996535 7.283261 -7.440220 29.382275 -0.301103 -13.076777 -0.002406 0.000018 -0.002399 -0.000000 0.000003 -0.000000 -11.494354 -1.757552 -19.815777 111.424619 5.807135 -1.118121 18.392074 1.770978 11.418898 48.422742 -2.992555 -9.859075 0.000000 -0.000001 0.000000 
4.056213 41.449112 -3.070207 1.158709 -29.227483 8.865885 3.730408 -4.479289 -5.862583 2.916485 -3.766127 -2.975205 2.887548 -3.811523 -2.931172 -0.451600 2.300632 4.688342 -0.453967 16.505680 4.957954 0.000000 0.000001 -0.000001 1.087780 -0.046556 1.319951 -3.299641 -13.327366 -52.781677 -0.041957 -89.005705 -0.041992 -53.654609 17.650519 40.244533 1.016532 3.605840 -31.478703 1.016535 3.605847 -31.478706 0.193862 1.625532 -13.600723 -0.000000 -0.000001 -0.000000 -1.540054 3.690176 6.142346 3.939054 7.948718 0.746808 -0.579463 1.574998 2.538715 -0.000000 -0.000002 0.000000 5.462832 18.428998 6.230589 -26.761163 -7.355575 29.204137 0.000049 110.213797 -0.000041 24.784620 -12.039738 29.192119 -1.849243 -3.581788 -6.586142 4.637190 -8.634121 -0.225402 -1.273753 0.137309 -2.094871 -0.000001 0.000000 0.000000 0.081309 -1.062411 8.752869 0.003266 -0.213421 1.751359 0.000828 -0.107511 0.882470 0.000000 0.000001 0.000000 -78.332250 -16.684214 51.014990 73.820978 7.383011 -7.518321 29.450205 -0.648133 -12.921272 -0.002241 0.000002 -0.002174 -0.000000 -0.000002 -0.000000 -11.232200 -1.991021 -19.529555 111.171854 5.808782 -1.127986 18.478474 1.803906 11.675526 48.486273 -2.993615 -9.727043 0.000001 0.000000 0.000000 
3.957934 41.479179 -3.073466 1.052026 -29.026730 8.774789 3.773222 -4.408787 -6.078170 2.944081 -3.721390 -3.097349 2.921875 -3.764487 -3.052727 -0.705671 2.161372 5.082326 -0.109753 16.563374 4.532332 -0.000000 0.000001 0.000000 1.005241 0.123647 1.558522 -3.192897 -13.660946 -52.879751 0.013059 -89.201253 0.013148 -53.722488 16.907860 40.070961 1.016533 3.605839 -31.478703 1.016528 3.605845 -31.478706 0.193865 1.625531 -13.600721 0.000000 0.000001 0.000000 -1.540054 3.690178 6.142347 3.939055 7.948714 0.746807 -0.579463 1.574998 2.538715 0.000000 -0.000004 -0.000000 5.467560 18.501003 6.754296 -24.524155 -5.726048 27.904565 0.000007 112.187421 -0.000004 25.763211 -10.762850 30.176988 -1.849244 -3.581787 -6.586141 4.637190 -8.634118 -0.225401 -1.273753 0.137304 -2.094871 -0.000000 0.000003 -0.000000 0.081439 -1.063214 8.759473 0.005076 -0.266218 2.185153 0.001275 -0.133157 1.092817 0.000000 0.000001 0.000000 -78.315120 -16.547626 51.023777 73.611216 7.500463 -7.540446 29.514368 -0.941622 -12.831118 -0.002016 0.000012 -0.001829 -0.000000 -0.000000 -0.000000 -10.922270 -2.317325 -19.369097 110.934935 5.864939 -1.138377 18.409598 1.816848 11.910831 48.618045 -2.995241 -9.602316 -0.000000 -0.000000 -0.000001 
